<?xml version="1.0" encoding="UTF-8"?>
<svg version="1.1" xmlns="http://www.w3.org/2000/svg" width="360" height="360">
<path d="M0 0 C1.49319517 1.29651782 2.97271237 2.60897169 4.4375 3.9375 C5.25089844 4.62199219 6.06429687 5.30648437 6.90234375 6.01171875 C27.1537791 23.39238052 40.15452101 47.67954417 44.4375 73.9375 C44.62054688 75.00871094 44.80359375 76.07992187 44.9921875 77.18359375 C49.10438636 111.84870866 36.9710078 140.04945043 18.19921875 168.26513672 C15.17824948 172.84766577 12.2485531 177.48779162 9.3125 182.125 C5.2557618 188.51751988 1.18444093 194.89931266 -2.9375 201.25 C-10.20123867 212.44359021 -17.37544864 223.69458826 -24.5625 234.9375 C-42.7003856 263.3111176 -42.7003856 263.3111176 -47.39599609 270.51147461 C-50.11424304 274.67975972 -52.78372455 278.87521195 -55.4296875 283.08984375 C-56.78632773 285.22664543 -58.14309782 287.36336466 -59.5 289.5 C-60.13945557 290.53141113 -60.77891113 291.56282227 -61.43774414 292.62548828 C-62.34834595 294.05030518 -62.34834595 294.05030518 -63.27734375 295.50390625 C-63.81480225 296.35927979 -64.35226074 297.21465332 -64.90600586 298.09594727 C-65.72597046 299.00751587 -65.72597046 299.00751587 -66.5625 299.9375 C-67.8825 299.9375 -69.2025 299.9375 -70.5625 299.9375 C-72.13964844 298.22290039 -72.13964844 298.22290039 -73.671875 295.78515625 C-74.25316162 294.87652832 -74.83444824 293.96790039 -75.43334961 293.03173828 C-76.05346924 292.03126465 -76.67358887 291.03079102 -77.3125 290 C-77.96935791 288.96601074 -78.62621582 287.93202148 -79.30297852 286.86669922 C-80.6967567 284.67107329 -82.08470524 282.4717376 -83.46728516 280.26904297 C-86.12446075 276.0439418 -88.82162818 271.84524641 -91.51977539 267.64624023 C-94.19573307 263.47905722 -96.85975691 259.30429728 -99.52441406 255.12988281 C-102.97152776 249.73045077 -106.42278015 244.33366841 -109.875 238.9375 C-110.54781006 237.88578613 -111.22062012 236.83407227 -111.91381836 235.75048828 C-115.61450754 229.96933031 -119.32737611 224.19646422 -123.0625 218.4375 C-128.86637345 209.48885453 -134.61072999 200.50230952 -140.35546875 191.515625 C-143.18722179 187.08584555 -146.02341976 182.65896047 -148.86328125 178.234375 C-152.77293946 172.14172294 -156.67307976 166.04309136 -160.5625 159.9375 C-161.01657227 159.22577637 -161.47064453 158.51405273 -161.93847656 157.78076172 C-179.36222135 130.377186 -187.50121555 100.17840522 -180.53125 67.8828125 C-173.66558024 38.95905083 -156.61698734 12.37533258 -131.5625 -4.0625 C-91.57805898 -28.49549359 -37.96907926 -29.84990508 0 0 Z " fill="#E80000" transform="translate(248.5625,32.0625)"/>
<path d="M0 0 C0.61649414 0.2676416 1.23298828 0.5352832 1.86816406 0.81103516 C9.67727001 4.25551677 16.5313372 8.42486844 23 14 C23.66257813 14.51949219 24.32515625 15.03898437 25.0078125 15.57421875 C40.93888788 28.47526607 49.21134077 48.11451412 52 68 C53.52846566 88.52153079 48.04388276 109.99394179 35.2890625 126.34375 C20.39716432 143.62445096 1.32262898 156.04822632 -22 158 C-32.68838577 158.5962117 -42.7713843 158.44179096 -53 155 C-54.13953125 154.64808594 -55.2790625 154.29617187 -56.453125 153.93359375 C-69.15220414 149.76928533 -78.40856011 143.16295632 -88 134 C-88.62648438 133.44828125 -89.25296875 132.8965625 -89.8984375 132.328125 C-104.52795374 118.95634998 -110.50049549 98.20709626 -112.38671875 79.078125 C-113.07608285 56.92338914 -104.57330782 36.8050963 -90.1875 20.25 C-67.74254445 -3.48920185 -30.46817497 -13.46978337 0 0 Z " fill="#F70303" transform="translate(210,48)"/>
<path d="M0 0 C3.83956667 1.59367538 6.76722715 4.02881425 9.95703125 6.66015625 C10.60220703 7.18029297 11.24738281 7.70042969 11.91210938 8.23632812 C13.4961759 9.51531517 15.07126531 10.80540669 16.64453125 12.09765625 C16.97453125 9.12765625 17.30453125 6.15765625 17.64453125 3.09765625 C20.61453125 3.09765625 23.58453125 3.09765625 26.64453125 3.09765625 C26.58910156 4.22042969 26.53367187 5.34320313 26.4765625 6.5 C26.22213249 15.1996789 26.22213249 15.1996789 29.703125 22.87890625 C32.57421785 25.17911417 35.53443323 27.13338382 38.64453125 29.09765625 C41.01388044 30.86471847 43.32523619 32.70314941 45.64453125 34.53515625 C48.5916656 36.81182184 51.54384658 39.03053314 54.64453125 41.09765625 C54.89453125 43.66015625 54.89453125 43.66015625 54.64453125 46.09765625 C54.31453125 46.42765625 53.98453125 46.75765625 53.64453125 47.09765625 C49.02453125 47.09765625 44.40453125 47.09765625 39.64453125 47.09765625 C39.64453125 61.61765625 39.64453125 76.13765625 39.64453125 91.09765625 C34.71515625 91.11828125 29.78578125 91.13890625 24.70703125 91.16015625 C22.37137085 91.17381226 22.37137085 91.17381226 19.98852539 91.18774414 C18.16502563 91.19149048 18.16502563 91.19149048 16.3046875 91.1953125 C15.05308838 91.20054932 13.80148926 91.20578613 12.51196289 91.21118164 C9.64453125 91.09765625 9.64453125 91.09765625 8.64453125 90.09765625 C8.53460282 87.85348912 8.4885925 85.60614527 8.46875 83.359375 C8.44554509 81.96808394 8.42142748 80.57680786 8.39648438 79.18554688 C8.36140187 76.98663421 8.33205029 74.78826944 8.31860352 72.58911133 C8.30310209 70.47018517 8.26287591 68.35287337 8.21875 66.234375 C8.20416748 64.96295654 8.18958496 63.69153809 8.17456055 62.3815918 C7.56115532 58.58107883 6.6693331 57.39568556 3.64453125 55.09765625 C1.66718048 54.47543332 1.66718048 54.47543332 -0.35546875 54.59765625 C-1.01546875 54.58734375 -1.67546875 54.57703125 -2.35546875 54.56640625 C-5.33191616 55.35702509 -6.45039989 56.69216302 -8.35546875 59.09765625 C-8.98146261 62.46119094 -8.98146261 62.46119094 -8.9296875 66.234375 C-8.95093437 67.25444389 -8.95093437 67.25444389 -8.97261047 68.29512024 C-9.01441987 70.4586282 -9.02973784 72.62130158 -9.04296875 74.78515625 C-9.0720026 76.95933603 -9.10648524 79.13330374 -9.14546204 81.30732727 C-9.17823094 83.27204438 -9.19626978 85.23699056 -9.21362305 87.2019043 C-9.35546875 90.09765625 -9.35546875 90.09765625 -10.35546875 91.09765625 C-12.56197531 91.19778026 -14.77169261 91.22846805 -16.98046875 91.23046875 C-17.64256348 91.23142548 -18.3046582 91.2323822 -18.98681641 91.23336792 C-20.38899836 91.23404951 -21.79118345 91.23219667 -23.19335938 91.22802734 C-25.34642588 91.22267871 -27.49928377 91.22797295 -29.65234375 91.234375 C-31.01171921 91.23371421 -32.37109455 91.23243304 -33.73046875 91.23046875 C-34.97570312 91.22934082 -36.2209375 91.22821289 -37.50390625 91.22705078 C-40.35546875 91.09765625 -40.35546875 91.09765625 -41.35546875 90.09765625 C-41.4442101 86.99514424 -41.4706533 83.91497505 -41.453125 80.8125 C-41.45171005 79.88168106 -41.4502951 78.95086212 -41.44883728 77.99183655 C-41.44322047 75.00624434 -41.43066515 72.02072596 -41.41796875 69.03515625 C-41.41295591 67.01627712 -41.40839263 64.99739682 -41.40429688 62.97851562 C-41.39324558 58.01820053 -41.3759697 53.05794093 -41.35546875 48.09765625 C-45.64546875 48.09765625 -49.93546875 48.09765625 -54.35546875 48.09765625 C-54.68546875 45.78765625 -55.01546875 43.47765625 -55.35546875 41.09765625 C-44.39032617 32.54124356 -33.38456185 24.04141143 -22.32763672 15.60400391 C-19.24955438 13.25295562 -16.17651646 10.89538318 -13.10546875 8.53515625 C-12.1103125 7.77074219 -11.11515625 7.00632812 -10.08984375 6.21875 C-7.32474841 4.13456199 -7.32474841 4.13456199 -4.80859375 1.7578125 C-2.35546875 0.09765625 -2.35546875 0.09765625 0 0 Z " fill="#FCFBFB" transform="translate(180.35546875,71.90234375)"/>
<path d="M0 0 C0.61649414 0.2676416 1.23298828 0.5352832 1.86816406 0.81103516 C9.67727001 4.25551677 16.5313372 8.42486844 23 14 C23.66257813 14.51949219 24.32515625 15.03898437 25.0078125 15.57421875 C40.93888788 28.47526607 49.21134077 48.11451412 52 68 C53.52846566 88.52153079 48.04388276 109.99394179 35.2890625 126.34375 C20.39716432 143.62445096 1.32262898 156.04822632 -22 158 C-32.68838577 158.5962117 -42.7713843 158.44179096 -53 155 C-54.13953125 154.64808594 -55.2790625 154.29617187 -56.453125 153.93359375 C-69.15220414 149.76928533 -78.40856011 143.16295632 -88 134 C-88.62648438 133.44828125 -89.25296875 132.8965625 -89.8984375 132.328125 C-104.52795374 118.95634998 -110.50049549 98.20709626 -112.38671875 79.078125 C-113.07608285 56.92338914 -104.57330782 36.8050963 -90.1875 20.25 C-67.74254445 -3.48920185 -30.46817497 -13.46978337 0 0 Z M-87.42578125 27.01953125 C-101.97961384 43.87017505 -106.21592397 63.52676117 -105.23828125 85.13964844 C-103.57351277 105.12369302 -91.66131128 123.05115869 -76.77734375 135.87109375 C-62.79535402 146.58865269 -48.29861854 151.40043337 -30.75 151.5 C-29.67331055 151.50644531 -28.59662109 151.51289063 -27.48730469 151.51953125 C-6.7303206 151.18914766 11.19992148 142.23308988 25.59521484 127.53417969 C32.37840713 120.12618866 37.48083613 111.38012428 41 102 C41.391875 101.01386719 41.78375 100.02773437 42.1875 99.01171875 C48.54315613 80.58472962 46.1019986 60.00427336 37.75 42.6875 C34.47285924 36.49579576 30.69937128 31.18248422 26 26 C25.30003906 25.21882813 24.60007813 24.43765625 23.87890625 23.6328125 C15.33993489 14.5915487 5.51102189 9.40321324 -6 5 C-6.81984375 4.64808594 -7.6396875 4.29617187 -8.484375 3.93359375 C-37.24093645 -6.73848418 -67.39703771 6.30506753 -87.42578125 27.01953125 Z " fill="#FCF2F2" transform="translate(210,48)"/>
<path d="M0 0 C14.15323202 -0.62338869 35.42275699 -0.58009664 46.61328125 9.4453125 C48.41931104 11.81611449 49.01869812 14.09972331 49.5625 17 C48.78851877 21.12789987 47.18132377 23.40382458 44 26 C13.29697577 45.74818518 -36.7119163 42.00271585 -70.73535156 34.66333008 C-80.10284811 32.45086634 -91.02701056 29.03264097 -97 21 C-98.33539771 17.74496808 -98.11494744 16.3678318 -97.0625 13 C-92.56641332 6.46023756 -85.97481428 4.26543862 -78.453125 2.55859375 C-72.00742504 1.51590699 -65.51810651 1.23987955 -59 1 C-59 1.66 -59 2.32 -59 3 C-60.63195312 3.43699219 -60.63195312 3.43699219 -62.296875 3.8828125 C-71.45891261 6.41232476 -79.67338382 9.33131925 -88 14 C-87.72917184 16.43446583 -87.72917184 16.43446583 -87 19 C-61.39572095 36.60294185 -10.68839423 31.24854722 18 26 C26.14961897 24.38250555 33.74722122 22.14444502 41 18 C40.64936192 15.48709373 40.38984425 14.31545368 38.3828125 12.69140625 C26.59043951 6.79521975 12.97579696 3.95365932 0 2 C0 1.34 0 0.68 0 0 Z " fill="#1A1A1A" transform="translate(207,311)"/>
<path d="M0 0 C3.02654005 3.7635222 5.36309697 7.87977244 7.75 12.0625 C8.17410156 12.78244141 8.59820312 13.50238281 9.03515625 14.24414062 C9.43089844 14.93830078 9.82664063 15.63246094 10.234375 16.34765625 C10.77916504 17.29137085 10.77916504 17.29137085 11.33496094 18.25415039 C12 20 12 20 11 23 C9.36992743 20.44060561 7.74584824 17.87772677 6.125 15.3125 C5.66480469 14.59126953 5.20460937 13.87003906 4.73046875 13.12695312 C0.11428874 5.80127616 0.11428874 5.80127616 -1 2 C-0.67 1.34 -0.34 0.68 0 0 Z " fill="#B40000" transform="translate(136,257)"/>
<path d="M0 0 C0.66 0.33 1.32 0.66 2 1 C-6.2095968 10.5344885 -6.2095968 10.5344885 -10 14 C-10.66 14 -11.32 14 -12 14 C-12.33 15.32 -12.66 16.64 -13 18 C-13.66 18 -14.32 18 -15 18 C-13.52357373 12.77345099 -10.17768064 9.83173561 -6.375 6.1875 C-5.76398438 5.59001953 -5.15296875 4.99253906 -4.5234375 4.37695312 C-3.02235161 2.91104894 -1.51207138 1.45457007 0 0 Z " fill="#EB1515" transform="translate(133,65)"/>
<path d="M0 0 C0.66 0 1.32 0 2 0 C3.48046875 1.5390625 3.48046875 1.5390625 5.1875 3.625 C8.50557496 7.54255909 12.0266051 10.75641233 16 14 C11.9520819 14 10.95386558 12.50702321 8 9.8125 C7.13375 9.03519531 6.2675 8.25789062 5.375 7.45703125 C3.09880204 5.10221461 1.55010994 2.87076282 0 0 Z " fill="#B21E1E" transform="translate(122,171)"/>
<path d="M0 0 C4.33333333 4.33333333 8.66666667 8.66666667 13 13 C12.34 13.66 11.68 14.32 11 15 C9.3450251 13.25792116 7.70124579 11.50723628 6.0625 9.75 C5.59392578 9.25886719 5.12535156 8.76773438 4.64257812 8.26171875 C2.20831226 5.63481314 0.40673782 3.63467843 0 0 Z " fill="#B62222" transform="translate(113,172)"/>
<path d="M0 0 C1.43861294 0.08746284 2.87597508 0.19565348 4.3125 0.3125 C5.11300781 0.37050781 5.91351563 0.42851562 6.73828125 0.48828125 C9.36272334 1.08206694 10.30820672 1.95780294 12 4 C7.6822542 3.49202991 3.96697886 2.80317221 0 1 C0 0.67 0 0.34 0 0 Z " fill="#B32F2F" transform="translate(150,193)"/>
</svg>
